HIERARCHY
ROOT hips
{
  OFFSET -0.00735851563513279 12.18665635585785 0.12248523347079754
  CHANNELS 6 Xposition Yposition Zposition Yrotation Xrotation Zrotation
  JOINT spine
  {
    OFFSET 1.0244548320770264e-7 0.5955291986465454 0
    CHANNELS 3 Yrotation Xrotation Zrotation
    JOINT chest
    {
      OFFSET 0 1.2719063864449713 0
      CHANNELS 3 Yrotation Xrotation Zrotation
      JOINT upperChest
      {
        OFFSET 0 1.490802666915459 0
        CHANNELS 3 Yrotation Xrotation Zrotation
        JOINT neck
        {
          OFFSET 0 1.3131953345263365 0
          CHANNELS 3 Yrotation Xrotation Zrotation
          JOINT head
          {
            OFFSET 0 0.8653679716847534 0
            CHANNELS 3 Yrotation Xrotation Zrotation
            JOINT leftEye
            {
              OFFSET 0.20629723300226033 0.6721053123474121 0.3036841657012701
              CHANNELS 3 Yrotation Xrotation Zrotation
              End Site
              {
                OFFSET 0.20629723300226033 0.6721053123474121 0.3036841657012701
              }
            }
            JOINT rightEye
            {
              OFFSET -0.20629652100615203 0.6721066236495972 0.30368443205952644
              CHANNELS 3 Yrotation Xrotation Zrotation
              End Site
              {
                OFFSET -0.20629652100615203 0.6721066236495972 0.30368443205952644
              }
            }
          }
        }
        JOINT leftShoulder
        {
          OFFSET 0.24624172446783632 0.959903359413147 0
          CHANNELS 3 Yrotation Xrotation Zrotation
          JOINT leftUpperArm
          {
            OFFSET 0.9650355761446514 0 0
            CHANNELS 3 Yrotation Xrotation Zrotation
            JOINT leftLowerArm
            {
              OFFSET 2.4419134471639827 0 0
              CHANNELS 3 Yrotation Xrotation Zrotation
              JOINT leftHand
              {
                OFFSET 2.3874557408809456 0 0
                CHANNELS 3 Yrotation Xrotation Zrotation
                JOINT leftIndexProximal
                {
                  OFFSET 0.7029628753662109 0.06118142604827881 0.23586585000157356
                  CHANNELS 3 Yrotation Xrotation Zrotation
                  JOINT leftIndexIntermediate
                  {
                    OFFSET 0.36102771759033203 -0.001475214958190918 0.056637559086084366
                    CHANNELS 3 Yrotation Xrotation Zrotation
                    JOINT leftIndexDistal
                    {
                      OFFSET 0.22344785928726196 -0.007408857345581055 0.02531452476978302
                      CHANNELS 3 Yrotation Xrotation Zrotation
                      End Site
                      {
                        OFFSET 0.22344785928726196 -0.007408857345581055 0.02531452476978302
                      }
                    }
                  }
                }
                JOINT leftLittleProximal
                {
                  OFFSET 0.6958752870559692 0.034375786781311035 -0.29472956992685795
                  CHANNELS 3 Yrotation Xrotation Zrotation
                  JOINT leftLittleIntermediate
                  {
                    OFFSET 0.34538060426712036 -0.0030041933059692383 0.00024324655532836914
                    CHANNELS 3 Yrotation Xrotation Zrotation
                    JOINT leftLittleDistal
                    {
                      OFFSET 0.19865047931671143 0.00746917724609375 -0.010377676226198673
                      CHANNELS 3 Yrotation Xrotation Zrotation
                      End Site
                      {
                        OFFSET 0.19865047931671143 0.00746917724609375 -0.010377676226198673
                      }
                    }
                  }
                }
                JOINT leftMiddleProximal
                {
                  OFFSET 0.7272291779518127 0.09209799766540527 0.05257739871740341
                  CHANNELS 3 Yrotation Xrotation Zrotation
                  JOINT leftMiddleIntermediate
                  {
                    OFFSET 0.40590834617614746 -0.014838695526123047 0.026817932724952698
                    CHANNELS 3 Yrotation Xrotation Zrotation
                    JOINT leftMiddleDistal
                    {
                      OFFSET 0.2495119571685791 -0.026458144187927246 0.010310646146535873
                      CHANNELS 3 Yrotation Xrotation Zrotation
                      End Site
                      {
                        OFFSET 0.2495119571685791 -0.026458144187927246 0.010310646146535873
                      }
                    }
                  }
                }
                JOINT leftRingProximal
                {
                  OFFSET 0.7334893345832825 0.09136629104614258 -0.1205735495314002
                  CHANNELS 3 Yrotation Xrotation Zrotation
                  JOINT leftRingIntermediate
                  {
                    OFFSET 0.3775520920753479 -0.005917906761169434 0.001896639820188284
                    CHANNELS 3 Yrotation Xrotation Zrotation
                    JOINT leftRingDistal
                    {
                      OFFSET 0.2177620530128479 0.007703900337219238 0.0027355607599020004
                      CHANNELS 3 Yrotation Xrotation Zrotation
                      End Site
                      {
                        OFFSET 0.2177620530128479 0.007703900337219238 0.0027355607599020004
                      }
                    }
                  }
                }
                JOINT leftThumbProximal
                {
                  OFFSET 0.02235114574432373 -0.07603192329406738 0.1950724683701992
                  CHANNELS 3 Yrotation Xrotation Zrotation
                  JOINT leftThumbIntermediate
                  {
                    OFFSET 0.3551589846611023 -0.02970755100250244 0.36741212010383606
                    CHANNELS 3 Yrotation Xrotation Zrotation
                    JOINT leftThumbDistal
                    {
                      OFFSET 0.23456048965454102 -0.016631245613098145 0.2093813568353653
                      CHANNELS 3 Yrotation Xrotation Zrotation
                      End Site
                      {
                        OFFSET 0.23456048965454102 -0.016631245613098145 0.2093813568353653
                      }
                    }
                  }
                }
              }
            }
          }
        }
        JOINT rightShoulder
        {
          OFFSET -0.24624088185373694 0.9600239992141724 0
          CHANNELS 3 Yrotation Xrotation Zrotation
          JOINT rightUpperArm
          {
            OFFSET -0.9650300767908009 0 0
            CHANNELS 3 Yrotation Xrotation Zrotation
            JOINT rightLowerArm
            {
              OFFSET -2.4420125187833426 0 0
              CHANNELS 3 Yrotation Xrotation Zrotation
              JOINT rightHand
              {
                OFFSET -2.3874255620910265 0 0
                CHANNELS 3 Yrotation Xrotation Zrotation
                JOINT rightIndexProximal
                {
                  OFFSET -0.7029609084129333 0.06117355823516846 0.23587234504520893
                  CHANNELS 3 Yrotation Xrotation Zrotation
                  JOINT rightIndexIntermediate
                  {
                    OFFSET -0.3610270619392395 -0.0014804601669311523 0.05664427950978279
                    CHANNELS 3 Yrotation Xrotation Zrotation
                    JOINT rightIndexDistal
                    {
                      OFFSET -0.2234485149383545 -0.0074127912521362305 0.025317884981632233
                      CHANNELS 3 Yrotation Xrotation Zrotation
                      End Site
                      {
                        OFFSET -0.2234485149383545 -0.0074127912521362305 0.025317884981632233
                      }
                    }
                  }
                }
                JOINT rightLittleProximal
                {
                  OFFSET -0.6958779096603394 0.034366607666015625 -0.29472311586141586
                  CHANNELS 3 Yrotation Xrotation Zrotation
                  JOINT rightLittleIntermediate
                  {
                    OFFSET -0.3453786373138428 -0.003008127212524414 0.00025422871112823486
                    CHANNELS 3 Yrotation Xrotation Zrotation
                    JOINT rightLittleDistal
                    {
                      OFFSET -0.19865179061889648 0.00746917724609375 -0.010371447540819645
                      CHANNELS 3 Yrotation Xrotation Zrotation
                      End Site
                      {
                        OFFSET -0.19865179061889648 0.00746917724609375 -0.010371447540819645
                      }
                    }
                  }
                }
                JOINT rightMiddleProximal
                {
                  OFFSET -0.7272304892539978 0.09209012985229492 0.05258418060839176
                  CHANNELS 3 Yrotation Xrotation Zrotation
                  JOINT rightMiddleIntermediate
                  {
                    OFFSET -0.4059063792228699 -0.014843940734863281 0.026821313425898552
                    CHANNELS 3 Yrotation Xrotation Zrotation
                    JOINT rightMiddleDistal
                    {
                      OFFSET -0.24951326847076416 -0.026460766792297363 0.010313207283616066
                      CHANNELS 3 Yrotation Xrotation Zrotation
                      End Site
                      {
                        OFFSET -0.24951326847076416 -0.026460766792297363 0.010313207283616066
                      }
                    }
                  }
                }
                JOINT rightRingProximal
                {
                  OFFSET -0.7334906458854675 0.09135580062866211 -0.12056719791144133
                  CHANNELS 3 Yrotation Xrotation Zrotation
                  JOINT rightRingIntermediate
                  {
                    OFFSET -0.37755340337753296 -0.005923151969909668 0.0019026175141334534
                    CHANNELS 3 Yrotation Xrotation Zrotation
                    JOINT rightRingDistal
                    {
                      OFFSET -0.21775943040847778 0.007701277732849121 0.0027383523993194103
                      CHANNELS 3 Yrotation Xrotation Zrotation
                      End Site
                      {
                        OFFSET -0.21775943040847778 0.007701277732849121 0.0027383523993194103
                      }
                    }
                  }
                }
                JOINT rightThumbProximal
                {
                  OFFSET -0.022347867488861084 -0.07603061199188232 0.19507363624870777
                  CHANNELS 3 Yrotation Xrotation Zrotation
                  JOINT rightThumbIntermediate
                  {
                    OFFSET -0.3550455570220947 -0.029461026191711426 0.36754218488931656
                    CHANNELS 3 Yrotation Xrotation Zrotation
                    JOINT rightThumbDistal
                    {
                      OFFSET -0.23451131582260132 -0.016489624977111816 0.20944765955209732
                      CHANNELS 3 Yrotation Xrotation Zrotation
                      End Site
                      {
                        OFFSET -0.23451131582260132 -0.016489624977111816 0.20944765955209732
                      }
                    }
                  }
                }
              }
            }
          }
        }
      }
    }
  }
  JOINT leftUpperLeg
  {
    OFFSET 0.8483456987887621 -0.42556869983673096 0
    CHANNELS 3 Yrotation Xrotation Zrotation
    JOINT leftLowerLeg
    {
      OFFSET 0 -4.6702112872869534 0
      CHANNELS 3 Yrotation Xrotation Zrotation
      JOINT leftFoot
      {
        OFFSET -0.13096565008163452 -5.202569782733917 -0.2985280640423298
        CHANNELS 3 Yrotation Xrotation Zrotation
        JOINT leftToes
        {
          OFFSET 0.01423943042755127 -0.7568342834711075 1.213271364569664
          CHANNELS 3 Yrotation Xrotation Zrotation
          End Site
          {
            OFFSET 0.01423943042755127 -0.7568342834711075 1.213271364569664
          }
        }
      }
    }
  }
  JOINT rightUpperLeg
  {
    OFFSET -0.8483468051999807 -0.42556607723236084 0
    CHANNELS 3 Yrotation Xrotation Zrotation
    JOINT rightLowerLeg
    {
      OFFSET 0 -4.670219469177788 0
      CHANNELS 3 Yrotation Xrotation Zrotation
      JOINT rightFoot
      {
        OFFSET 0.13097601756453514 -5.202573716640472 -0.29853164963424206
        CHANNELS 3 Yrotation Xrotation Zrotation
        JOINT rightToes
        {
          OFFSET -0.014232628047466278 -0.7568355947732925 1.213272675871849
          CHANNELS 3 Yrotation Xrotation Zrotation
          End Site
          {
            OFFSET -0.014232628047466278 -0.7568355947732925 1.213272675871849
          }
        }
      }
    }
  }
}
MOTION
Frames: 7
Frame Time: 0.03333333333333333
0 11.682712981546562 0 0 0 0 0 -4.610651315171937 0 0 3.0831277533083026 0 0 0 0 0 1.5275236235667615 0 0 0 0 0 0 0 0 0 0 0 1.5275236235667615 0 0 0 0 0 0 0 0 0 0 0 0 0 0 0 0 0 0 0 0 0 0 0 0 0 0 0 0 0 0 0 0 0 0 0 0 0 0 0 0 0 0 0 0 0 0 0 0 0 0 0 0 0 0 0 0 1.5275236235667615 0 0 0 0 0 0 0 0 0 0 0 0 0 0 0 0 0 0 0 0 0 0 0 0 0 0 0 0 0 0 0 0 0 0 0 0 0 0 0 0 0 0 0 0 0 0 0 0 0 0 0 0 0 0 0 0 0 -5.826343164929014 -0.3712483961610101 -3.6333298826370974 5.838118207697276 0 0 0 0 0 0 0 0 5.826343164929014 0.3712483961610101 -3.6333298826370974 -5.838118207697276 0 0 0 0 0 0
0 7.788475321031042 0 0.16254519275292428 3.139914849260642 -3.002733468641105 -0.14737798776963992 -2.0750067656012376 -1.1193507703201457 0.1306642373719918 6.847812526658798 -1.1896036266490062 0 0 0 -1.6520082756996266 14.327023119987379 0.38942980733275195 -0.12297193729159597 -9.811675920569675 -3.7865948898988924 0 0 0 0 0 0 -1.8659566095709412 1.7518249994484945 -0.5146719709503249 -13.776543270255965 -7.489222540769161 -18.125527567680958 -30.79952767473121 5.792758573686331 12.765542555856207 -5.343595183842113 0.36122639211795826 6.108838602640518 0 0 0 0 0 0 0 0 0 0 0 0 0 0 0 0 0 0 0 0 0 0 0 0 0 0 0 0 0 0 0 0 0 0 0 0 0 0 0 0 0 0 0 0 0 5.195422583718976 1.4806578199120226 -5.609934933246413 2.112072466603277 0.49031015339051776 6.056163744722805 13.944065164186478 3.1996803723031046 6.889357852252995 1.6194396444405967 -2.8542081979043994 16.370717726414547 0 0 0 0 0 0 0 0 0 0 0 0 0 0 0 0 0 0 0 0 0 0 0 0 0 0 0 0 0 0 0 0 0 0 0 0 0 0 0 0 0 0 0 0 0 10.02825647489991 -15.650770502668468 -3.1443561823990773 -6.407548375364766 15.826567371065854 4.566395575366562 0.17403946271413923 -8.775929859202877 -0.125886239623552 0 0 0 -4.455146011174586 0.43550121706572625 0.3533933150492188 -0.947990146271551 -3.8397711843634936 -6.017596550889189 0.8848510907860175 3.4414818384415446 0.5526766386154365 0 0 0
0 3.894237660515521 0 0.16021156643509243 6.284029190209165 -6.010113559767854 -0.2714779434506996 0.4720178881654308 -2.2224503383494416 0.1831640213570779 10.61438848145185 -2.3825494477865963 0 0 0 -3.353570656859664 27.13230294175148 0.40203974026176037 0.43318880730595244 -19.609402293301766 -7.725492110821893 0 0 0 0 0 0 -3.7340809574713245 1.9592459109404647 -1.0364414646261644 -24.970018800197312 -18.732535245339143 -34.597989120258895 -60.589216639244434 17.22795186551938 21.02127071928365 -10.619381644140836 1.2867261512336265 12.158609758034642 0 0 0 0 0 0 0 0 0 0 0 0 0 0 0 0 0 0 0 0 0 0 0 0 0 0 0 0 0 0 0 0 0 0 0 0 0 0 0 0 0 0 0 0 0 10.371125032888317 1.9412473283346836 -11.201695626085936 4.264226261879527 0.754761093738229 12.1266756873239 28.20618987008038 4.622927002696765 14.365285638838165 2.371167835632085 -6.048793763703482 32.723413814418016 0 0 0 0 0 0 0 0 0 0 0 0 0 0 0 0 0 0 0 0 0 0 0 0 0 0 0 0 0 0 0 0 0 0 0 0 0 0 0 0 0 0 0 0 0 20.495984309764275 -31.523208569585666 -3.319619153609463 -14.02181453921807 35.005045698018435 0.6275224342492701 0.37458357040478063 -17.551404125623556 -0.28422252412172905 0 0 0 -8.931608938223446 0.4432117134817454 -5.1369598497735245 -2.266905087595335 -4.050280487584286 -6.192307499743078 1.807880698550189 6.873824591414056 1.1617865749598324 0 0 0
0 0 0 -0.009264104170397696 9.423660000126388 -9.040468666231936 -0.36958613640065885 3.0269906844694314 -3.314430693724931 0.15552710825112612 14.381225714414299 -3.5894527633514475 0 0 0 -5.3248407992327635 39.93147087528247 -0.07508188816373 1.8012669608913296 -29.342832910831934 -12.09152938611136 0 0 0 0 0 0 -5.604250909214242 2.1495468221515264 -1.564764869527427 -33.17669921706697 -32.535338242608226 -50.04828083522556 -91.48325828877752 31.173289419213063 22.362736437334448 -15.772264117237997 2.7586230846678785 18.1022971883793 0 0 0 0 0 0 0 0 0 0 0 0 0 0 0 0 0 0 0 0 0 0 0 0 0 0 0 0 0 0 0 0 0 0 0 0 0 0 0 0 0 0 0 0 0 15.480085553918638 2.901332753513724 -16.732107268570793 6.432349444909199 0.7900098874863345 18.203031667408833 42.54029763235808 4.157390819203571 21.966236357390322 2.1869787923063777 -9.325012375030218 49.159124992200006 0 0 0 0 0 0 0 0 0 0 0 0 0 0 0 0 0 0 0 0 0 0 0 0 0 0 0 0 0 0 0 0 0 0 0 0 0 0 0 0 0 0 0 0 0 33.70315517393066 -47.03420692497305 -7.716657979694217 -26.681856720396823 53.300107620137695 -8.943656699553252 0.6148691169997476 -26.32622484563341 -0.48679245839917323 0 0 0 -13.388228891685904 0.023013984519288228 -10.611110836803885 -3.5855259836367006 -4.26474515408351 -6.362160342894901 2.776293857673224 10.295692882706648 1.832505351927898 0 0 0
-0.027678400298891338 0.32918857806641943 0.027678400298891338 -5.520257747035558 8.61087051209229 -8.82571017528673 0.15794560759411402 2.433048188259879 -2.3701286069662073 1.2030221228189093 12.525378781097281 -6.784172093079736 0 0 0 -4.64885459265074 40.17670430672693 1.1641291515302659 2.39148938675002 -27.699456502132506 -12.56937420798686 0 0 0 0 0 0 -4.823567282119975 2.0067258043987244 -2.85475596124511 -30.465533528896533 -25.246460606516397 -55.455973887096725 -89.72171754196349 30.85764425971791 21.934466655499847 -16.09800968316166 2.5778917176529133 14.61031417445377 0 0 0 0 0 0 0 0 0 0 0 0 0 0 0 0 0 0 0 0 0 0 0 0 0 0 0 0 0 0 0 0 0 0 0 0 0 0 0 0 0 0 0 0 0 11.423258460634372 3.7935379745668167 -25.614412603725256 10.185615960686434 -9.029495736705616 26.83151624781982 45.40115869488681 -0.5316657128900686 17.670583457189576 1.9745144959282377 -7.315820411404151 39.834602180634725 0 0 0 0 0 0 0 0 0 0 0 0 0 0 0 0 0 0 0 0 0 0 0 0 0 0 0 0 0 0 0 0 0 0 0 0 0 0 0 0 0 0 0 0 0 33.71138107252743 -41.713351180867036 -4.276288323369328 -21.895570695284512 45.635660247959684 -5.657754620021086 1.8551738316986945 -24.97611659843249 -1.901140670256479 0 0 0 -15.032268228413493 -1.773815169003167 -7.698671879589608 -3.3202703223939336 -3.8989689085792647 -5.6834116596931885 2.2467394753003953 11.438612503231226 2.2297414842014764 0 0 0
-0.055356800597782675 0.6583771561328389 0.055356800597782675 -11.023162538271292 7.822187210680776 -8.533586924428924 0.6892308587957263 1.9322812115574737 -1.3789738892571508 2.347298109234987 10.729313432357053 -9.991973789493276 0 0 0 -3.963660828384104 40.41065785117568 2.41145452387883 2.957909853669552 -26.051926288703534 -13.0214476772883 0 0 0 0 0 0 -4.039926643501458 1.8815167446709138 -4.146471643156219 -28.61881155704025 -17.776394478482878 -60.22960800635005 -87.96313716401465 30.553424286266406 21.49650422788918 -16.412085916855702 2.3776812736105333 11.119917560849629 0 0 0 0 0 0 0 0 0 0 0 0 0 0 0 0 0 0 0 0 0 0 0 0 0 0 0 0 0 0 0 0 0 0 0 0 0 0 0 0 0 0 0 0 0 7.274365791524467 4.0477619724231335 -34.54353625062851 12.513379136942792 -19.292253601428534 35.15888665808269 48.616978615491 -4.986633916574393 13.129373423561454 1.4387433340224596 -5.367096419236549 30.538515000502503 0 0 0 0 0 0 0 0 0 0 0 0 0 0 0 0 0 0 0 0 0 0 0 0 0 0 0 0 0 0 0 0 0 0 0 0 0 0 0 0 0 0 0 0 0 34.11514339262687 -36.40171908187641 -1.0848430908314501 -18.213879363911307 37.83600706994551 -3.561621463530946 3.0454998879633948 -23.59927441546149 -3.268171061323705 0 0 0 -16.76792719991498 -3.4839798120152325 -4.731732098733174 -3.050801518014971 -3.536355701252886 -5.003254211167241 1.7230604766947986 12.585069390008913 2.617830083749639 0 0 0
-0.08303520089667402 0.9875657341992584 0.08303520089667402 -16.520339944050065 7.064845554798698 -8.167112168536248 1.2229143395497035 1.528571576492236 -0.3490697119566959 3.585418924384047 8.998971139520195 -13.218296328321486 0 0 0 -3.269582896631314 40.633145692551835 3.66663056193603 3.5024099400902897 -24.400565319911117 -13.449528601004594 0 0 0 0 0 0 -3.253712404483963 1.7740052247218128 -5.439695878917169 -27.46729998601172 -10.19344123618034 -64.60348009442023 -86.20728281430893 30.26089292391203 21.049276855794748 -16.713338144496678 2.158742699910551 7.631176139622961 0 0 0 0 0 0 0 0 0 0 0 0 0 0 0 0 0 0 0 0 0 0 0 0 0 0 0 0 0 0 0 0 0 0 0 0 0 0 0 0 0 0 0 0 0 3.1365412416172775 3.656377163303911 -43.46696316989318 13.31279801618772 -29.774410725209385 43.72476449637416 52.20950682120717 -9.164495163895245 8.30016395137353 0.5960273048313794 -3.5299222417208216 21.248616595098937 0 0 0 0 0 0 0 0 0 0 0 0 0 0 0 0 0 0 0 0 0 0 0 0 0 0 0 0 0 0 0 0 0 0 0 0 0 0 0 0 0 0 0 0 0 34.839018586092386 -31.11494860431405 1.958602993818209 -15.18635359178053 29.958772305568615 -2.2297954220934133 4.187892621119702 -22.19735722032013 -4.5900954228169555 0 0 0 -18.593877794494574 -5.101205796297088 -1.7077183301867127 -2.7771400858555895 -3.1769636452789336 -4.32164741280731 1.2049273003197116 13.734929590998922 2.9969393156211384 0 0 0
